HIERARCHY
ROOT Hips
{
	OFFSET -32.860001 56.121803 44.745396
	CHANNELS 6 Xposition Yposition Zposition Zrotation Xrotation Yrotation
	JOINT Chest
	{
		OFFSET -0.637402 0.831600 5.390099
		CHANNELS 6 Xposition Yposition Zposition Zrotation Xrotation Yrotation
		JOINT Chest2
		{
			OFFSET 0.000000 0.000000 4.429901
			CHANNELS 6 Xposition Yposition Zposition Zrotation Xrotation Yrotation
			JOINT Neck
			{
				OFFSET 0.000000 0.000000 10.301395
				CHANNELS 6 Xposition Yposition Zposition Zrotation Xrotation Yrotation
				JOINT Head
				{
					OFFSET 0.000000 0.000000 2.173897
					CHANNELS 6 Xposition Yposition Zposition Zrotation Xrotation Yrotation
					End Site
					{
						OFFSET 0.000000 0.000000 8.298004
					}
				}
			}
			JOINT LeftCollar
			{
				OFFSET 2.142401 -0.572701 5.717800
				CHANNELS 6 Xposition Yposition Zposition Zrotation Xrotation Yrotation
				JOINT LeftShoulder
				{
					OFFSET 5.674000 0.000000 0.000000
					CHANNELS 6 Xposition Yposition Zposition Zrotation Xrotation Yrotation
					JOINT LeftElbow
					{
						OFFSET 0.000000 0.000000 -12.238701
						CHANNELS 6 Xposition Yposition Zposition Zrotation Xrotation Yrotation
						JOINT LeftWrist
						{
							OFFSET 0.000000 0.000000 -10.253700
							CHANNELS 6 Xposition Yposition Zposition Zrotation Xrotation Yrotation
							End Site
							{
								OFFSET 0.000000 0.000000 -2.173901
							}
						}
					}
				}
			}
			JOINT RightCollar
			{
				OFFSET -2.882599 -1.580101 6.695801
				CHANNELS 6 Xposition Yposition Zposition Zrotation Xrotation Yrotation
				JOINT RightShoulder
				{
					OFFSET -4.235600 0.000000 0.000000
					CHANNELS 6 Xposition Yposition Zposition Zrotation Xrotation Yrotation
					JOINT RightElbow
					{
						OFFSET 0.000000 0.000000 -10.709900
						CHANNELS 6 Xposition Yposition Zposition Zrotation Xrotation Yrotation
						JOINT RightWrist
						{
							OFFSET 0.000000 0.000000 -11.716801
							CHANNELS 6 Xposition Yposition Zposition Zrotation Xrotation Yrotation
							End Site
							{
								OFFSET 0.000000 0.000000 -2.173901
							}
						}
					}
				}
			}
		}
	}
	JOINT LeftHip
	{
		OFFSET 2.279499 0.210400 -2.475502
		CHANNELS 6 Xposition Yposition Zposition Zrotation Xrotation Yrotation
		JOINT LeftKnee
		{
			OFFSET 0.000000 -0.000004 -20.742800
			CHANNELS 6 Xposition Yposition Zposition Zrotation Xrotation Yrotation
			JOINT LeftAnkle
			{
				OFFSET 0.000000 0.000000 -16.666000
				CHANNELS 6 Xposition Yposition Zposition Zrotation Xrotation Yrotation
				End Site
				{
					OFFSET 0.000000 -8.310898 0.000000
				}
			}
		}
	}
	JOINT RightHip
	{
		OFFSET -1.961899 0.232300 -2.727402
		CHANNELS 6 Xposition Yposition Zposition Zrotation Xrotation Yrotation
		JOINT RightKnee
		{
			OFFSET 0.000000 -0.000004 -20.526800
			CHANNELS 6 Xposition Yposition Zposition Zrotation Xrotation Yrotation
			JOINT RightAnkle
			{
				OFFSET 0.000000 0.000000 -16.867300
				CHANNELS 6 Xposition Yposition Zposition Zrotation Xrotation Yrotation
				End Site
				{
					OFFSET 0.000000 -7.186401 0.000000
				}
			}
		}
	}
}
MOTION
Frames: 4
Frame Time: 0.041667
56.771515 -45.994209 45.899395 2185.988383 12.597661 -7.095262 -0.637398 0.831593 5.390098 -28.256231 -9.411192 29.330157 0.000000 0.000003 4.429900 3.135406 -5.649445 -0.775857 0.000000 -0.000004 10.301390 403.863621 -7.969409 -21.567564 -0.000005 0.000008 2.173889 -358.027287 -2.174119 2.215188 2.142394 -0.572700 5.717796 15.428468 -19.970225 -12.657549 5.674005 0.000003 -0.000009 336.477877 -709.141932 260.531227 0.000004 0.000002 -12.238703 448.686765 -188.190645 61.164890 -0.000002 -0.000003 -10.253705 314.566766 9.977938 8.745941 -2.882600 -1.580096 6.695790 -10.275604 -7.355545 22.151362 -4.235604 -0.000003 -0.000004 -1583.344947 246.504642 -405.130676 0.000006 0.000004 -10.709903 485.487333 -165.774838 168.104015 -0.000005 -0.000007 -11.716798 -538.197596 3.382041 -18.384916 2.279501 0.210393 -2.475507 512.340413 -13.919622 122.575162 -0.000007 -0.000005 -20.742804 -709.539503 189.282300 -51.930215 0.000005 -0.000000 -16.666008 814.006099 9.225072 54.318295 -1.961894 0.232294 -2.727407 -744.020320 -24.520707 -8.057788 -0.000000 0.000000 -20.526796 538.388295 152.717238 -187.157907 0.000001 0.000002 -16.867298 -8.865837 17.514268 -9.539297
56.750999 -45.932793 45.886295 2186.169793 12.919036 -6.853352 -0.637407 0.831596 5.390104 -28.490833 -9.552431 29.027648 0.000004 0.000003 4.429906 3.181440 -5.597014 -0.765083 0.000006 -0.000003 10.301390 403.971101 -7.961710 -21.708633 0.000001 -0.000002 2.173898 -358.114960 -2.240884 2.294824 2.142402 -0.572701 5.717795 15.632150 -20.102056 -12.338953 5.674002 0.000018 0.000005 336.721933 -705.375383 260.277964 0.000008 -0.000001 -12.238701 452.449708 -188.137042 61.443268 -0.000009 0.000009 -10.253705 314.309569 9.843185 8.567618 -2.882605 -1.580094 6.695794 -10.213939 -7.433437 22.437329 -4.235612 0.000006 0.000010 -1584.505970 246.428034 -406.257029 -0.000004 -0.000008 -10.709907 485.480065 -165.622443 167.976386 -0.000000 -0.000014 -11.716813 -538.253823 3.483343 -18.429770 2.279488 0.210394 -2.475504 512.358062 -13.842056 123.056458 -0.000007 -0.000006 -20.742813 -709.588845 189.205283 -51.818043 0.000002 -0.000001 -16.665998 813.927197 9.365224 54.137753 -1.961907 0.232292 -2.727400 -743.896885 -24.503765 -8.227742 0.000004 0.000003 -20.526806 537.667683 153.309320 -187.258693 -0.000002 0.000001 -16.867302 -8.632547 17.491940 -9.595653
56.716904 -45.879105 45.872696 2186.364536 13.142427 -6.625680 -0.637405 0.831601 5.390104 -28.703730 -9.699018 28.905446 -0.000005 -0.000001 4.429900 3.419203 -5.534313 -0.747021 -0.000002 0.000007 10.301394 403.946076 -7.988116 -21.978085 0.000004 0.000001 2.173905 -358.197988 -2.349271 2.381169 2.142397 -0.572692 5.717805 15.438265 -19.833604 -11.959417 5.674006 0.000001 0.000006 336.522246 -705.835301 259.654504 -0.000006 0.000010 -12.238718 451.898266 -187.736369 61.909087 -0.000005 0.000001 -10.253702 314.048300 9.713704 8.378654 -2.882597 -1.580092 6.695795 -10.333270 -7.354112 22.531512 -4.235613 -0.000006 -0.000010 -1585.077302 246.505297 -406.705417 0.000008 0.000006 -10.709905 485.387448 -165.607062 167.806984 -0.000006 -0.000010 -11.716810 -538.085090 3.483585 -18.472942 2.279497 0.210404 -2.475502 512.365001 -13.889366 123.457117 -0.000003 0.000006 -20.742798 -709.483988 189.216116 -51.765628 -0.000006 0.000007 -16.666006 813.879987 9.286815 54.048902 -1.961896 0.232307 -2.727400 -743.968028 -24.358954 -8.414773 -0.000001 -0.000004 -20.526796 537.197985 153.875993 -187.424639 -0.000002 -0.000008 -16.867302 -8.520997 17.291418 -9.802261
56.675926 -45.822594 45.851196 2186.431635 13.243589 -6.554763 -0.637405 0.831601 5.390109 -28.840088 -9.710370 29.055789 -0.000006 0.000005 4.429894 3.502194 -5.535432 -0.746196 0.000004 0.000000 10.301389 403.826820 -8.141812 -22.155802 0.000004 0.000004 2.173900 -358.059526 -2.339456 2.335527 2.142400 -0.572693 5.717797 15.327397 -19.821942 -12.137247 5.673997 0.000005 0.000001 336.415941 -705.943545 259.619179 -0.000011 0.000006 -12.238719 451.842149 -187.529168 62.099329 0.000001 -0.000001 -10.253706 313.751652 9.528387 8.186296 -2.882600 -1.580085 6.695786 -10.425466 -7.398018 22.401528 -4.235605 -0.000010 0.000000 -1585.621640 246.276568 -407.244483 0.000003 0.000003 -10.709906 485.470558 -165.485184 167.804388 -0.000019 -0.000005 -11.716803 -538.368843 3.417046 -18.444113 2.279490 0.210402 -2.475500 512.337243 -13.834763 123.548041 -0.000010 -0.000004 -20.742809 -709.592068 189.071275 -51.780002 -0.000007 -0.000004 -16.666010 813.713166 9.209539 54.013641 -1.961902 0.232305 -2.727397 -743.720065 -24.185900 -8.311724 -0.000003 -0.000007 -20.526793 536.967233 154.383094 -187.754756 -0.000001 0.000002 -16.867298 -8.799351 16.852935 -10.018295
